<?xml version="1.0" standalone="no"?>
<!DOCTYPE svg PUBLIC "-//W3C//DTD SVG 1.1//EN" "http://www.w3.org/Graphics/SVG/1.1/DTD/svg11.dtd" >
<svg xmlns="http://www.w3.org/2000/svg" xmlns:xlink="http://www.w3.org/1999/xlink" version="1.1">
<metadata></metadata>
<defs>
<font id="c39p24dhttnormal" horiz-adv-x="655" >
<font-face units-per-em="2048" ascent="1638" descent="-410" />
<missing-glyph horiz-adv-x="500" />
<glyph horiz-adv-x="0" />
<glyph unicode="&#xd;" />
<glyph unicode=" " />
<glyph unicode="$" d="M0 -410v2048h16v-2048h-16zM164 -410v2048h16v-2048h-16zM328 -410v2048h16v-2048h-16zM492 -410v2048h16v-2048h-16zM573 -410v2048h17v-2048h-17z" />
<glyph unicode="%" d="M0 -410v2048h16v-2048h-16zM82 -410v2048h16v-2048h-16zM246 -410v2048h16v-2048h-16zM410 -410v2048h16v-2048h-16zM573 -410v2048h17v-2048h-17z" />
<glyph unicode="*" d="M0 -410v2048h16v-2048h-16zM164 -410v2048h16v-2048h-16zM246 -410v2048h98v-2048h-98zM410 -410v2048h98v-2048h-98zM573 -410v2048h17v-2048h-17z" />
<glyph unicode="+" d="M0 -410v2048h16v-2048h-16zM164 -410v2048h16v-2048h-16zM246 -410v2048h16v-2048h-16zM410 -410v2048h16v-2048h-16zM573 -410v2048h17v-2048h-17z" />
<glyph unicode="-" d="M0 -410v2048h16v-2048h-16zM164 -410v2048h16v-2048h-16zM246 -414v2048h16v-2048h-16zM328 -410v2048h98v-2048h-98zM492 -412v2048h98v-2048h-98z" />
<glyph unicode="." d="M0 -410v2048h98v-2048h-98zM246 -410v2048h16v-2048h-16zM328 -410v2048h16v-2048h-16zM410 -410v2048h98v-2048h-98zM573 -410v2048h17v-2048h-17z" />
<glyph unicode="/" d="M0 -410v2048h16v-2048h-16zM164 -410v2048h16v-2048h-16zM328 -410v2048h16v-2048h-16zM410 -410v2048h16v-2048h-16zM573 -410v2048h17v-2048h-17z" />
<glyph unicode="0" d="M0 -410v2048h16v-2048h-16zM82 -410v2048h16v-2048h-16zM246 -410v2048h98v-2048h-98zM410 -410v2048h98v-2048h-98zM573 -410v2048h17v-2048h-17z" />
<glyph unicode="1" d="M0 -410v2048h98v-2048h-98zM164 -410v2048h16v-2048h-16zM328 -410v2048h16v-2048h-16zM410 -410v2048h16v-2048h-16zM492 -410v2048h98v-2048h-98z" />
<glyph unicode="2" d="M0 -410v2048h16v-2048h-16zM82 -410v2048h98v-2048h-98zM328 -410v2048h16v-2048h-16zM410 -410v2048h16v-2048h-16zM492 -410v2048h98v-2048h-98z" />
<glyph unicode="3" d="M0 -410v2048h98v-2048h-98zM164 -410v2048h98v-2048h-98zM410 -410v2048h16v-2048h-16zM492 -410v2048h16v-2048h-16zM573 -410v2048h17v-2048h-17z" />
<glyph unicode="4" d="M0 -410v2048h16v-2048h-16zM82 -410v2048h16v-2048h-16zM246 -410v2048h98v-2048h-98zM410 -414v2048h16v-2048h-16zM492 -412v2048h98v-2048h-98z" />
<glyph unicode="5" d="M0 -410v2048h98v-2048h-98zM164 -410v2048h16v-2048h-16zM328 -410v2048h98v-2048h-98zM492 -410v2048h16v-2048h-16zM573 -410v2048h17v-2048h-17z" />
<glyph unicode="6" d="M0 -410v2048h16v-2048h-16zM82 -410v2048h98v-2048h-98zM328 -410v2048h98v-2048h-98zM492 -410v2048h16v-2048h-16zM573 -410v2048h17v-2048h-17z" />
<glyph unicode="7" d="M0 -410v2048h16v-2048h-16zM82 -410v2048h16v-2048h-16zM246 -414v2048h16v-2048h-16zM328 -410v2048h98v-2048h-98zM492 -412v2048h98v-2048h-98z" />
<glyph unicode="8" d="M0 -410v2048h98v-2048h-98zM164 -410v2048h16v-2048h-16zM328 -410v2048h16v-2048h-16zM410 -410v2048h98v-2048h-98zM573 -410v2048h17v-2048h-17z" />
<glyph unicode="9" d="M0 -410v2048h16v-2048h-16zM82 -410v2048h98v-2048h-98zM328 -410v2048h16v-2048h-16zM410 -410v2048h98v-2048h-98zM573 -410v2048h17v-2048h-17z" />
<glyph unicode="?" horiz-adv-x="2048" />
<glyph unicode="A" d="M0 -410v2048h98v-2048h-98zM164 -410v2048h16v-2048h-16zM246 -410v2048h16v-2048h-16zM410 -410v2048h16v-2048h-16zM492 -410v2048h98v-2048h-98z" />
<glyph unicode="B" d="M0 -410v2048h16v-2048h-16zM82 -410v2048h98v-2048h-98zM246 -410v2048h16v-2048h-16zM410 -410v2048h16v-2048h-16zM492 -410v2048h98v-2048h-98z" />
<glyph unicode="C" d="M0 -410v2048h98v-2048h-98zM164 -410v2048h98v-2048h-98zM328 -410v2048h16v-2048h-16zM492 -410v2048h16v-2048h-16zM573 -410v2048h17v-2048h-17z" />
<glyph unicode="D" d="M0 -410v2048h16v-2048h-16zM82 -410v2048h16v-2048h-16zM164 -410v2048h98v-2048h-98zM410 -414v2048h16v-2048h-16zM492 -412v2048h98v-2048h-98z" />
<glyph unicode="E" d="M0 -410v2048h98v-2048h-98zM164 -410v2048h16v-2048h-16zM246 -410v2048h98v-2048h-98zM492 -410v2048h16v-2048h-16zM573 -410v2048h17v-2048h-17z" />
<glyph unicode="F" d="M0 -410v2048h16v-2048h-16zM82 -410v2048h98v-2048h-98zM246 -410v2048h98v-2048h-98zM492 -410v2048h16v-2048h-16zM573 -410v2048h17v-2048h-17z" />
<glyph unicode="G" d="M0 -410v2048h16v-2048h-16zM82 -410v2048h16v-2048h-16zM164 -414v2048h16v-2048h-16zM328 -410v2048h98v-2048h-98zM492 -412v2048h98v-2048h-98z" />
<glyph unicode="H" d="M0 -410v2048h98v-2048h-98zM164 -410v2048h16v-2048h-16zM246 -410v2048h16v-2048h-16zM410 -410v2048h98v-2048h-98zM573 -410v2048h17v-2048h-17z" />
<glyph unicode="I" d="M0 -410v2048h16v-2048h-16zM82 -410v2048h98v-2048h-98zM246 -410v2048h16v-2048h-16zM410 -410v2048h98v-2048h-98zM573 -410v2048h17v-2048h-17z" />
<glyph unicode="J" d="M0 -410v2048h16v-2048h-16zM82 -410v2048h16v-2048h-16zM164 -410v2048h98v-2048h-98zM410 -410v2048h98v-2048h-98zM573 -410v2048h17v-2048h-17z" />
<glyph unicode="K" d="M0 -410v2048h98v-2048h-98zM164 -410v2048h16v-2048h-16zM246 -410v2048h16v-2048h-16zM328 -410v2048h16v-2048h-16zM492 -410v2048h98v-2048h-98z" />
<glyph unicode="L" d="M0 -410v2048h16v-2048h-16zM82 -410v2048h98v-2048h-98zM246 -410v2048h16v-2048h-16zM328 -410v2048h16v-2048h-16zM492 -410v2048h98v-2048h-98z" />
<glyph unicode="M" d="M0 -410v2048h98v-2048h-98zM164 -410v2048h98v-2048h-98zM328 -410v2048h16v-2048h-16zM410 -410v2048h16v-2048h-16zM573 -410v2048h17v-2048h-17z" />
<glyph unicode="N" d="M0 -410v2048h16v-2048h-16zM82 -410v2048h16v-2048h-16zM164 -410v2048h98v-2048h-98zM328 -414v2048h16v-2048h-16zM492 -412v2048h98v-2048h-98z" />
<glyph unicode="O" d="M0 -410v2048h98v-2048h-98zM164 -410v2048h16v-2048h-16zM246 -410v2048h98v-2048h-98zM410 -410v2048h16v-2048h-16zM573 -410v2048h17v-2048h-17z" />
<glyph unicode="P" d="M0 -410v2048h16v-2048h-16zM82 -410v2048h98v-2048h-98zM246 -410v2048h98v-2048h-98zM410 -410v2048h16v-2048h-16zM573 -410v2048h17v-2048h-17z" />
<glyph unicode="Q" d="M0 -410v2048h16v-2048h-16zM82 -410v2048h16v-2048h-16zM164 -414v2048h16v-2048h-16zM246 -410v2048h98v-2048h-98zM492 -412v2048h98v-2048h-98z" />
<glyph unicode="R" d="M0 -410v2048h98v-2048h-98zM164 -410v2048h16v-2048h-16zM246 -410v2048h16v-2048h-16zM328 -410v2048h98v-2048h-98zM573 -410v2048h17v-2048h-17z" />
<glyph unicode="S" d="M0 -410v2048h16v-2048h-16zM82 -410v2048h98v-2048h-98zM246 -410v2048h16v-2048h-16zM328 -410v2048h98v-2048h-98zM573 -410v2048h17v-2048h-17z" />
<glyph unicode="T" d="M0 -410v2048h16v-2048h-16zM82 -410v2048h16v-2048h-16zM164 -410v2048h98v-2048h-98zM328 -410v2048h98v-2048h-98zM573 -410v2048h17v-2048h-17z" />
<glyph unicode="U" d="M0 -410v2048h98v-2048h-98zM246 -410v2048h16v-2048h-16zM328 -410v2048h16v-2048h-16zM410 -410v2048h16v-2048h-16zM492 -410v2048h98v-2048h-98z" />
<glyph unicode="V" d="M0 -410v2048h16v-2048h-16zM164 -410v2048h98v-2048h-98zM328 -410v2048h16v-2048h-16zM410 -410v2048h16v-2048h-16zM492 -410v2048h98v-2048h-98z" />
<glyph unicode="W" d="M0 -410v2048h98v-2048h-98zM246 -410v2048h98v-2048h-98zM410 -410v2048h16v-2048h-16zM492 -410v2048h16v-2048h-16zM573 -410v2048h17v-2048h-17z" />
<glyph unicode="X" d="M0 -410v2048h16v-2048h-16zM164 -410v2048h16v-2048h-16zM246 -410v2048h98v-2048h-98zM410 -414v2048h16v-2048h-16zM492 -412v2048h98v-2048h-98z" />
<glyph unicode="Y" d="M0 -410v2048h98v-2048h-98zM246 -410v2048h16v-2048h-16zM328 -410v2048h98v-2048h-98zM492 -410v2048h16v-2048h-16zM573 -410v2048h17v-2048h-17z" />
<glyph unicode="Z" d="M0 -410v2048h16v-2048h-16zM164 -410v2048h98v-2048h-98zM328 -410v2048h98v-2048h-98zM492 -410v2048h16v-2048h-16zM573 -410v2048h17v-2048h-17z" />
<glyph unicode="^" horiz-adv-x="1126" d="M0 0v1628v-1628z" />
<glyph unicode="_" d="M0 -410v2048h16v-2048h-16zM164 -410v2048h98v-2048h-98zM328 -410v2048h16v-2048h-16zM410 -410v2048h98v-2048h-98zM573 -410v2048h17v-2048h-17z" />
<glyph unicode="a" d="M0 -410v2048h102v-2048h-102zM164 -410v2048h20v-2048h-20zM246 -410v2048h20v-2048h-20zM410 -410v2048h20v-2048h-20zM492 -410v2048h102v-2048h-102z" />
<glyph unicode="b" d="M0 -410v2048h20v-2048h-20zM82 -410v2048h102v-2048h-102zM246 -410v2048h20v-2048h-20zM410 -410v2048h20v-2048h-20zM492 -410v2048h102v-2048h-102z" />
<glyph unicode="c" d="M0 -410v2048h102v-2048h-102zM164 -410v2048h102v-2048h-102zM328 -410v2048h20v-2048h-20zM492 -410v2048h20v-2048h-20zM573 -410v2048h21v-2048h-21z" />
<glyph unicode="d" d="M0 -410v2048h20v-2048h-20zM82 -410v2048h20v-2048h-20zM164 -410v2048h102v-2048h-102zM410 -410v2048h20v-2048h-20zM492 -410v2048h102v-2048h-102z" />
<glyph unicode="e" d="M0 -410v2048h102v-2048h-102zM164 -410v2048h20v-2048h-20zM246 -410v2048h102v-2048h-102zM492 -410v2048h20v-2048h-20zM573 -410v2048h21v-2048h-21z" />
<glyph unicode="f" d="M0 -410v2048h20v-2048h-20zM82 -410v2048h102v-2048h-102zM246 -410v2048h102v-2048h-102zM492 -410v2048h20v-2048h-20zM573 -410v2048h21v-2048h-21z" />
<glyph unicode="g" d="M0 -410v2048h20v-2048h-20zM82 -410v2048h20v-2048h-20zM164 -410v2048h20v-2048h-20zM328 -410v2048h102v-2048h-102zM492 -410v2048h102v-2048h-102z" />
<glyph unicode="h" d="M0 -410v2048h102v-2048h-102zM164 -410v2048h20v-2048h-20zM246 -410v2048h20v-2048h-20zM410 -410v2048h102v-2048h-102zM573 -410v2048h21v-2048h-21z" />
<glyph unicode="i" d="M0 -410v2048h20v-2048h-20zM82 -410v2048h102v-2048h-102zM246 -410v2048h20v-2048h-20zM410 -410v2048h102v-2048h-102zM573 -410v2048h21v-2048h-21z" />
<glyph unicode="j" d="M0 -410v2048h20v-2048h-20zM82 -410v2048h20v-2048h-20zM164 -410v2048h102v-2048h-102zM410 -410v2048h102v-2048h-102zM573 -410v2048h21v-2048h-21z" />
<glyph unicode="k" d="M0 -410v2048h102v-2048h-102zM164 -410v2048h20v-2048h-20zM246 -410v2048h20v-2048h-20zM328 -410v2048h20v-2048h-20zM492 -410v2048h102v-2048h-102z" />
<glyph unicode="l" d="M0 -410v2048h20v-2048h-20zM82 -410v2048h102v-2048h-102zM246 -410v2048h20v-2048h-20zM328 -410v2048h20v-2048h-20zM492 -410v2048h102v-2048h-102z" />
<glyph unicode="m" d="M0 -410v2048h102v-2048h-102zM164 -410v2048h102v-2048h-102zM328 -410v2048h20v-2048h-20zM410 -410v2048h20v-2048h-20zM573 -410v2048h21v-2048h-21z" />
<glyph unicode="n" d="M0 -410v2048h20v-2048h-20zM82 -410v2048h20v-2048h-20zM164 -410v2048h102v-2048h-102zM328 -410v2048h20v-2048h-20zM492 -410v2048h102v-2048h-102z" />
<glyph unicode="o" d="M0 -410v2048h102v-2048h-102zM164 -410v2048h20v-2048h-20zM246 -410v2048h102v-2048h-102zM410 -410v2048h20v-2048h-20zM573 -410v2048h21v-2048h-21z" />
<glyph unicode="p" d="M0 -410v2048h20v-2048h-20zM82 -410v2048h102v-2048h-102zM246 -410v2048h102v-2048h-102zM410 -410v2048h20v-2048h-20zM573 -410v2048h21v-2048h-21z" />
<glyph unicode="q" d="M0 -410v2048h20v-2048h-20zM82 -410v2048h20v-2048h-20zM164 -410v2048h20v-2048h-20zM246 -410v2048h102v-2048h-102zM492 -410v2048h102v-2048h-102z" />
<glyph unicode="r" d="M0 -410v2048h102v-2048h-102zM164 -410v2048h20v-2048h-20zM246 -410v2048h20v-2048h-20zM328 -410v2048h102v-2048h-102zM573 -410v2048h21v-2048h-21z" />
<glyph unicode="s" d="M0 -410v2048h20v-2048h-20zM82 -410v2048h102v-2048h-102zM246 -410v2048h20v-2048h-20zM328 -410v2048h102v-2048h-102zM573 -410v2048h21v-2048h-21z" />
<glyph unicode="t" d="M0 -410v2048h20v-2048h-20zM82 -410v2048h20v-2048h-20zM164 -410v2048h102v-2048h-102zM328 -410v2048h102v-2048h-102zM573 -410v2048h21v-2048h-21z" />
<glyph unicode="u" d="M0 -410v2048h102v-2048h-102zM246 -410v2048h20v-2048h-20zM328 -410v2048h20v-2048h-20zM410 -410v2048h20v-2048h-20zM492 -410v2048h102v-2048h-102z" />
<glyph unicode="v" d="M0 -410v2048h20v-2048h-20zM164 -410v2048h102v-2048h-102zM328 -410v2048h20v-2048h-20zM410 -410v2048h20v-2048h-20zM492 -410v2048h102v-2048h-102z" />
<glyph unicode="w" d="M0 -410v2048h102v-2048h-102zM246 -410v2048h102v-2048h-102zM410 -410v2048h20v-2048h-20zM492 -410v2048h20v-2048h-20zM573 -410v2048h21v-2048h-21z" />
<glyph unicode="x" d="M0 -410v2048h20v-2048h-20zM164 -410v2048h20v-2048h-20zM246 -410v2048h102v-2048h-102zM410 -410v2048h20v-2048h-20zM492 -410v2048h102v-2048h-102z" />
<glyph unicode="y" d="M0 -410v2048h102v-2048h-102zM246 -410v2048h20v-2048h-20zM328 -410v2048h102v-2048h-102zM492 -410v2048h20v-2048h-20zM573 -410v2048h21v-2048h-21z" />
<glyph unicode="z" d="M0 -410v2048h20v-2048h-20zM164 -410v2048h102v-2048h-102zM328 -410v2048h102v-2048h-102zM492 -410v2048h20v-2048h-20zM573 -410v2048h21v-2048h-21z" />
<glyph unicode="&#xad;" d="M0 -410v2048h16v-2048h-16zM164 -410v2048h16v-2048h-16zM246 -414v2048h16v-2048h-16zM328 -410v2048h98v-2048h-98zM492 -412v2048h98v-2048h-98z" />
<glyph unicode="&#x2000;" horiz-adv-x="819" />
<glyph unicode="&#x2001;" horiz-adv-x="1638" />
<glyph unicode="&#x2002;" horiz-adv-x="819" />
<glyph unicode="&#x2003;" horiz-adv-x="1638" />
<glyph unicode="&#x2004;" horiz-adv-x="546" />
<glyph unicode="&#x2005;" horiz-adv-x="409" />
<glyph unicode="&#x2006;" horiz-adv-x="273" />
<glyph unicode="&#x2007;" horiz-adv-x="273" />
<glyph unicode="&#x2008;" horiz-adv-x="204" />
<glyph unicode="&#x2009;" horiz-adv-x="327" />
<glyph unicode="&#x200a;" horiz-adv-x="91" />
<glyph unicode="&#x2010;" d="M0 -410v2048h16v-2048h-16zM164 -410v2048h16v-2048h-16zM246 -414v2048h16v-2048h-16zM328 -410v2048h98v-2048h-98zM492 -412v2048h98v-2048h-98z" />
<glyph unicode="&#x2011;" d="M0 -410v2048h16v-2048h-16zM164 -410v2048h16v-2048h-16zM246 -414v2048h16v-2048h-16zM328 -410v2048h98v-2048h-98zM492 -412v2048h98v-2048h-98z" />
<glyph unicode="&#x2012;" d="M0 -410v2048h16v-2048h-16zM164 -410v2048h16v-2048h-16zM246 -414v2048h16v-2048h-16zM328 -410v2048h98v-2048h-98zM492 -412v2048h98v-2048h-98z" />
<glyph unicode="&#x2013;" horiz-adv-x="1089" d="M0 -410v2048h28v-2048h-28zM285 -410v2048h27v-2048h-27zM427 -414v2048h28v-2048h-28zM569 -410v2048h170v-2048h-170zM854 -412v2048h170v-2048h-170z" />
<glyph unicode="&#x2014;" horiz-adv-x="2113" d="M0 -410v2048h56v-2048h-56zM569 -410v2048h56v-2048h-56zM854 -414v2048h55v-2048h-55zM1139 -410v2048h340v-2048h-340zM1708 -412v2048h340v-2048h-340z" />
<glyph unicode="&#x202f;" horiz-adv-x="327" />
<glyph unicode="&#x205f;" horiz-adv-x="409" />
<glyph unicode="&#x25fc;" horiz-adv-x="1638" d="M0 0v1638h1638v-1638h-1638z" />
</font>
</defs>
</svg>
